<svg clip-rule="evenodd" fill-rule="evenodd" stroke-linejoin="round" stroke-miterlimit="2" viewBox="0 0 64 64" xmlns="http://www.w3.org/2000/svg"><g transform="translate(-1768 -168)"><path d="m1770.65 220.767 28 10c.88.311 1.83.311 2.7 0l28-10c2.07-.743 3.16-3.033 2.42-5.112-.75-2.079-3.04-3.164-5.12-2.422l-26.65 9.52s-26.65-9.52-26.65-9.52c-2.08-.742-4.37.343-5.12 2.422-.74 2.079.35 4.369 2.42 5.112zm0-18 28 10c.88.311 1.83.311 2.7 0l28-10c2.07-.743 3.16-3.033 2.42-5.112-.75-2.079-3.04-3.164-5.12-2.422l-26.65 9.52s-26.65-9.52-26.65-9.52c-2.08-.742-4.37.343-5.12 2.422-.74 2.079.35 4.369 2.42 5.112zm41.58-31.647c-7.91-2.824-16.55-2.824-24.46 0-7.87 2.809-17.12 6.113-17.12 6.113-1.59.569-2.65 2.077-2.65 3.767s1.06 3.198 2.65 3.767l28 10c.88.311 1.83.311 2.7 0l28-10c1.59-.569 2.65-2.077 2.65-3.767s-1.06-3.198-2.65-3.767c0 0-9.25-3.304-17.12-6.113zm-2.69 7.534 6.57 2.346s-16.11 5.753-16.11 5.753-16.11-5.753-16.11-5.753 6.57-2.346 6.57-2.346c6.17-2.203 12.91-2.203 19.08 0z"/></g></svg>