<svg xmlns="http://www.w3.org/2000/svg" version="1.1" xmlns:xlink="http://www.w3.org/1999/xlink" width="512" height="512" x="0" y="0" viewBox="0 0 48 48" style="enable-background:new 0 0 512 512" xml:space="preserve"><g><path d="M44 19h-3.77c-.31-1.02-.72-2-1.22-2.94l2.66-2.66c.19-.19.29-.44.29-.71s-.11-.52-.29-.71l-5.66-5.66a.996.996 0 0 0-1.41 0l-2.66 2.66c-.94-.49-1.92-.9-2.94-1.21V4c0-.55-.45-1-1-1h-8c-.55 0-1 .45-1 1v3.77c-1.02.31-2 .72-2.94 1.22L13.4 6.33a.996.996 0 0 0-1.41 0l-5.66 5.66c-.19.19-.29.44-.29.71s.11.52.29.71l2.66 2.66c-.5.93-.91 1.91-1.22 2.93H4c-.55 0-1 .45-1 1v8c0 .55.45 1 1 1h3.77c.31 1.02.72 2 1.22 2.94L6.33 34.6c-.19.19-.29.44-.29.71s.11.52.29.71l5.66 5.66c.39.39 1.02.39 1.41 0l2.66-2.66c.94.5 1.92.9 2.94 1.22V44c0 .55.45 1 1 1h8c.55 0 1-.45 1-1v-3.77c1.02-.31 2-.72 2.94-1.22l2.66 2.66c.39.39 1.02.39 1.41 0l5.66-5.66c.19-.19.29-.44.29-.71s-.11-.52-.29-.71l-2.66-2.66c.5-.94.9-1.92 1.22-2.94H44c.55 0 1-.45 1-1v-8a1 1 0 0 0-1-.99zm-1 8h-3.52c-.46 0-.85.31-.97.75-.35 1.36-.89 2.66-1.6 3.86-.23.39-.17.89.15 1.22l2.49 2.49-4.24 4.24-2.49-2.49a1.01 1.01 0 0 0-1.22-.15c-1.2.71-2.5 1.25-3.86 1.6-.43.1-.74.5-.74.96V43h-6v-3.52c0-.46-.31-.85-.75-.97-1.36-.35-2.66-.89-3.86-1.6-.39-.23-.89-.17-1.22.15l-2.49 2.49-4.24-4.24 2.49-2.49c.32-.32.39-.82.15-1.22-.71-1.2-1.25-2.5-1.6-3.86-.1-.43-.5-.74-.96-.74H5v-6h3.52c.46 0 .85-.31.97-.75.35-1.36.89-2.66 1.6-3.86.23-.39.17-.89-.15-1.22l-2.49-2.49 4.24-4.24 2.49 2.49c.32.32.82.39 1.22.15 1.2-.71 2.5-1.25 3.86-1.6.43-.1.74-.5.74-.96V5h6v3.52c0 .46.31.85.75.97 1.36.35 2.66.89 3.86 1.6.39.23.89.17 1.22-.15l2.49-2.49 4.24 4.24-2.49 2.49c-.32.32-.39.82-.15 1.22.71 1.2 1.25 2.5 1.6 3.86.11.44.51.75.97.75H43z" fill="#ffffff" opacity="1" data-original="#000000"></path><path d="M24 15c-4.96 0-9 4.04-9 9s4.04 9 9 9 9-4.04 9-9-4.04-9-9-9zm0 16c-3.86 0-7-3.14-7-7s3.14-7 7-7 7 3.14 7 7-3.14 7-7 7z" fill="#ffffff" opacity="1" data-original="#000000"></path></g></svg>