<svg id="Layer_1" enable-background="new 0 0 512 512" height="512" viewBox="0 0 512 512" width="512" xmlns="http://www.w3.org/2000/svg"><path clip-rule="evenodd" d="m263.825 508.149 134.037-168.645c33.762-42.468 52.979-93.248 54.142-142.986 1.237-53.37-17.743-101.224-54.9-138.376-35.711-35.71-82.792-56.157-133.305-58.068h-15.603c-50.513 1.911-97.594 22.357-133.305 58.068-37.151 37.157-56.137 85.006-54.895 138.376 1.158 49.733 20.385 100.517 54.137 142.986l134.037 168.645c1.898 2.386 4.781 3.777 7.828 3.777 3.051-.001 5.93-1.391 7.827-3.777zm-7.827-254.595c-29.618 0-53.71-24.092-53.71-53.705 0-29.617 24.092-53.709 53.71-53.709s53.714 24.092 53.714 53.709c0 29.612-24.097 53.705-53.714 53.705zm73.713-53.706c0 40.64-33.068 73.709-73.714 73.709-40.645 0-73.709-33.069-73.709-73.709 0-40.645 33.064-73.709 73.709-73.709 40.646.001 73.714 33.065 73.714 73.709z" fill-rule="evenodd"/></svg>